<svg id="Capa_1" enable-background="new 0 0 512 512" height="512" viewBox="0 0 512 512" width="512" xmlns="http://www.w3.org/2000/svg"><g><path d="m440 129h-368c-8.284 0-15 6.716-15 15v64c0 8.284 6.716 15 15 15h368c8.284 0 15-6.716 15-15v-64c0-8.284-6.716-15-15-15z" fill="#4e6ba6"/><path d="m440 129h-184v94h184c8.284 0 15-6.716 15-15v-64c0-8.284-6.716-15-15-15z" fill="#28487a"/><path d="m288 321h-64c-8.284 0-15 6.716-15 15v64c0 8.284 6.716 15 15 15h64c8.284 0 15-6.716 15-15v-64c0-8.284-6.716-15-15-15z" fill="#4e6ba6"/><path d="m288 321h-32v94h32c8.284 0 15-6.716 15-15v-64c0-8.284-6.716-15-15-15z" fill="#28487a"/><path d="m496 401h-480c-8.284 0-15 6.716-15 15v64c0 8.284 6.716 15 15 15h480c8.284 0 15-6.716 15-15v-64c0-8.284-6.716-15-15-15z" fill="#4e6ba6"/><path d="m496 401h-240v94h240c8.284 0 15-6.716 15-15v-64c0-8.284-6.716-15-15-15z" fill="#28487a"/><path d="m464 193h-416c-8.284 0-15 6.716-15 15v128c0 8.284 6.716 15 15 15h416c8.284 0 15-6.716 15-15v-128c0-8.284-6.716-15-15-15z" fill="#8dc2eb"/><path d="m464 351c8.284 0 15-6.716 15-15v-128c0-8.284-6.716-15-15-15h-208v158z" fill="#5e9ff6"/><path d="m400 287h-79.953c-8.284 0-15-6.716-15-15s6.716-15 15-15h79.953c8.284 0 15 6.716 15 15s-6.716 15-15 15z" fill="#fabe2c"/><circle cx="112" cy="272" fill="#ffe470" r="15"/><circle cx="256" cy="272" fill="#ffe470" r="15"/><path d="m256 257v30c8.284 0 15-6.716 15-15s-6.716-15-15-15z" fill="#fabe2c"/><path d="m464 0h-416c-8.284 0-15 6.716-15 15v129c0 8.284 6.716 15 15 15h416c8.284 0 15-6.716 15-15v-129c0-8.284-6.716-15-15-15z" fill="#8dc2eb"/><path d="m464 159c8.284 0 15-6.716 15-15v-129c0-8.284-6.716-15-15-15h-208v159z" fill="#5e9ff6"/><path d="m400 95h-79.953c-8.284 0-15-6.716-15-15s6.716-15 15-15h79.953c8.284 0 15 6.716 15 15s-6.716 15-15 15z" fill="#fabe2c"/><circle cx="112" cy="80" fill="#ffe470" r="15"/><circle cx="256" cy="80" fill="#ffe470" r="15"/><path d="m256 65v30c8.284 0 15-6.716 15-15s-6.716-15-15-15z" fill="#fabe2c"/><path d="m368 385h-224c-8.284 0-15 6.716-15 15v97c0 8.284 6.716 15 15 15h224c8.284 0 15-6.716 15-15v-97c0-8.284-6.716-15-15-15z" fill="#00dd80"/><path d="m368 385h-112v127h112c8.284 0 15-6.716 15-15v-97c0-8.284-6.716-15-15-15z" fill="#00aa95"/></g></svg>